<svg xmlns="http://www.w3.org/2000/svg" version="1.1" xmlns:xlink="http://www.w3.org/1999/xlink" xmlns:svgjs="http://svgjs.dev/svgjs" width="2000" height="1500" viewBox="0 0 2000 1500"><rect width="2000" height="1500" fill="#ff9300"></rect><g transform="matrix(0.49407114624505927,0,0,0.49407114624505927,506.8023067452861,250.4048582995951)"><svg viewBox="0 0 244 247" data-background-color="#ff9300" preserveAspectRatio="xMidYMid meet" height="2024" width="2000" xmlns="http://www.w3.org/2000/svg" xmlns:xlink="http://www.w3.org/1999/xlink"><g id="tight-bounds" transform="matrix(1,0,0,1,-0.21567999999999188,-0.09999999999999432)"><svg viewBox="0 0 244.43135999999998 247.2" height="247.2" width="244.43135999999998"><g><svg></svg></g><g><svg viewBox="0 0 244.43135999999998 247.2" height="247.2" width="244.43135999999998"><g transform="matrix(1,0,0,1,0,109.53232732026143)"><svg viewBox="0 0 244.43135999999998 28.13534535947712" height="28.13534535947712" width="244.43135999999998"><g><svg viewBox="0 0 244.43135999999998 28.13534535947712" height="28.13534535947712" width="244.43135999999998"><g><svg viewBox="0 0 244.43135999999998 28.13534535947712" height="28.13534535947712" width="244.43135999999998"><g><svg viewBox="0 0 244.43135999999998 28.13534535947712" height="28.13534535947712" width="244.43135999999998"><g id="textblocktransform"><svg viewBox="0 0 244.43135999999998 28.13534535947712" height="28.13534535947712" width="244.43135999999998" id="textblock"><g><svg viewBox="0 0 244.43135999999998 28.13534535947712" height="28.13534535947712" width="244.43135999999998"><g transform="matrix(1,0,0,1,0,0)"><svg width="244.43135999999998" viewBox="0 -31.7 275.38 31.7" height="28.13534535947712" data-palette-color="#ffffff"><path d="M7.3 0L0 0 14.65-29.4 24.5-29.4 39.1 0 31.4 0 28.45-6.35 10.55-6.35 7.3 0ZM19.25-24.9L12.35-11.25 26.6-11.25 19.75-24.9 19.25-24.9ZM64.65 0L50.75 0Q47.2 0 45.2-1 43.2-2 42.4-4 41.6-6 41.6-8.95L41.6-8.95 41.6-20.1Q41.6-24.9 43.75-27.18 45.9-29.45 50.75-29.45L50.75-29.45 65.8-29.45Q69.25-29.45 71.07-29.08 72.9-28.7 72.9-28.3L72.9-28.3 71.9-24.15Q71.05-24.3 66.87-24.48 62.7-24.65 54.75-24.65L54.75-24.65 52.2-24.65Q48.2-24.65 48.2-21.1L48.2-21.1 48.2-8.35Q48.2-6.65 49.07-5.73 49.95-4.8 52.2-4.8L52.2-4.8 54.25-4.8Q62.55-4.8 67.12-4.98 71.7-5.15 72.8-5.35L72.8-5.35 74.85-2.05Q74.85-1.8 74.02-1.3 73.2-0.8 71-0.4 68.8 0 64.65 0L64.65 0ZM118.14 0L90.84 0 90.84-29.4 121.94-29.4 121.94-24.6 97.44-24.6 97.44-17.7 116.14-17.7 116.14-12.75 97.44-12.75 97.44-4.8 122.14-4.8 124.14-0.55Q124.14-0.35 122.79-0.18 121.44 0 118.14 0L118.14 0ZM134.74 0L128.64 0 128.64-27.7 128.14-31.7 134.74-31.7 134.74 0ZM156.89 0L146.84 0Q144.34 0 142.99-0.65 141.64-1.3 141.06-2.3 140.49-3.3 140.36-4.4 140.24-5.5 140.24-6.4L140.24-6.4 140.24-16Q140.24-16.75 140.36-17.82 140.49-18.9 141.06-19.95 141.64-21 143.01-21.7 144.39-22.4 146.84-22.4L146.84-22.4 157.59-22.4Q160.89-22.4 162.76-21.78 164.64-21.15 165.41-19.75 166.19-18.35 166.19-16L166.19-16 166.19-8.6 157.44-8.6Q152.94-8.6 150.11-8.8 147.29-9 146.34-9.05L146.34-9.05 146.34-6.3Q146.29-4.3 148.74-4.3L148.74-4.3 151.29-4.3Q153.99-4.3 156.56-4.38 159.14-4.45 161.29-4.58 163.44-4.7 164.74-4.8L164.74-4.8 166.74-1.55Q166.74 0 156.89 0L156.89 0ZM146.34-16.1L146.34-12.9 160.09-12.9 160.09-16.1Q160.09-17.1 159.86-17.5 159.64-17.9 158.54-18 157.44-18.1 154.79-18.1L154.79-18.1 148.74-18.1Q146.34-18.1 146.34-16.1L146.34-16.1ZM187.89 0L177.84 0Q175.34 0 173.99-0.65 172.64-1.3 172.06-2.3 171.49-3.3 171.36-4.4 171.24-5.5 171.24-6.4L171.24-6.4 171.24-16Q171.24-16.75 171.36-17.82 171.49-18.9 172.06-19.95 172.64-21 174.01-21.7 175.39-22.4 177.84-22.4L177.84-22.4 184.79-22.4Q191.04-22.4 193.66-22.08 196.29-21.75 196.29-21.4L196.29-21.4 195.29-17.6Q193.89-17.7 191.74-17.82 189.59-17.95 187.11-18.03 184.64-18.1 182.29-18.1L182.29-18.1 179.74-18.1Q177.34-18.1 177.34-16.1L177.34-16.1 177.34-6.3Q177.29-4.3 179.74-4.3L179.74-4.3 182.29-4.3Q184.99-4.3 187.56-4.38 190.14-4.45 192.29-4.58 194.44-4.7 195.74-4.8L195.74-4.8 197.74-1.55Q197.74 0 187.89 0L187.89 0ZM211.48 0L209.93 0Q206.13 0 204.73-1.6 203.33-3.2 203.33-6.4L203.33-6.4 203.33-18.1 199.23-18.1 199.23-22.4 201.33-22.4Q202.28-22.4 202.71-22.7 203.13-23 203.33-23.9L203.33-23.9 204.33-29.25 209.43-29.25 209.43-22.4 219.83-22.4 219.83-18.1 209.43-18.1 209.43-6.35Q209.43-5.1 210.03-4.7 210.63-4.3 211.83-4.3L211.83-4.3 218.88-4.3 219.38-0.5Q218.33-0.35 216.18-0.18 214.03 0 211.48 0L211.48 0ZM229.93 0L223.83 0 223.83-22.4 227.93-22.4 229.83-21.4Q231.13-22.1 232.63-22.5 234.13-22.9 236.43-22.9L236.43-22.9Q240.08-22.9 242.36-22.1 244.63-21.3 245.38-20.9L245.38-20.9 243.63-16.55Q243.03-16.85 241.66-17.32 240.28-17.8 238.43-18.2 236.58-18.6 234.38-18.6L234.38-18.6 233.83-18.6Q231.43-18.6 230.71-17.65 229.98-16.7 229.93-14.5L229.93-14.5 229.93 0ZM268.78 0L254.98 0Q251.63 0 250-1.35 248.38-2.7 248.38-5.75L248.38-5.75 248.38-16Q248.38-16.75 248.5-17.82 248.63-18.9 249.2-19.95 249.78-21 251.15-21.7 252.53-22.4 254.98-22.4L254.98-22.4 268.78-22.4Q271.28-22.4 272.63-21.7 273.98-21 274.55-19.95 275.13-18.9 275.25-17.82 275.38-16.75 275.38-16L275.38-16 275.38-6.4Q275.38-5.5 275.25-4.4 275.13-3.3 274.53-2.3 273.93-1.3 272.58-0.65 271.23 0 268.78 0L268.78 0ZM256.88-4.3L256.88-4.3 266.88-4.3Q269.33-4.3 269.33-6.3L269.33-6.3 269.33-16.1Q269.33-18.1 266.88-18.1L266.88-18.1 256.88-18.1Q254.48-18.1 254.48-16.1L254.48-16.1 254.48-6.3Q254.48-4.3 256.88-4.3Z" opacity="1" transform="matrix(1,0,0,1,0,0)" fill="#ffffff" class="wordmark-text-0" data-fill-palette-color="primary" id="text-0"></path></svg></g></svg></g></svg></g></svg></g><g></g></svg></g></svg></g></svg></g><path d="M0 103.532L0 1 244.431 1 244.431 103.532 241.894 103.532 241.894 3.537 2.537 3.537 2.537 103.532 0 103.532M0 143.668L0 246.2 244.431 246.2 244.431 143.668 241.894 143.668 241.894 243.663 2.537 243.663 2.537 143.668 0 143.668" fill="#ffffff" stroke="transparent" data-fill-palette-color="primary"></path></svg></g><defs></defs></svg><rect width="244.43135999999998" height="247.2" fill="none" stroke="none" visibility="hidden"></rect></g></svg></g></svg>